<?xml version="1.0" encoding="UTF-8" standalone="no"?>
<svg
   xmlns:dc="http://purl.org/dc/elements/1.1/"
   xmlns:cc="http://creativecommons.org/ns#"
   xmlns:rdf="http://www.w3.org/1999/02/22-rdf-syntax-ns#"
   xmlns:svg="http://www.w3.org/2000/svg"
   xmlns="http://www.w3.org/2000/svg"
   xmlns:sodipodi="http://sodipodi.sourceforge.net/DTD/sodipodi-0.dtd"
   xmlns:inkscape="http://www.inkscape.org/namespaces/inkscape"
   inkscape:version="1.0 (4035a4fb49, 2020-05-01)"
   sodipodi:docname="blood-donate.svg"
   xml:space="preserve"
   style="enable-background:new 0 0 512 512;"
   viewBox="0 0 512 512"
   y="0px"
   x="0px"
   id="Layer_1"
   version="1.1"><metadata
   id="metadata63"><rdf:RDF><cc:Work
       rdf:about=""><dc:format>image/svg+xml</dc:format><dc:type
         rdf:resource="http://purl.org/dc/dcmitype/StillImage" /></cc:Work></rdf:RDF></metadata><defs
   id="defs61" /><sodipodi:namedview
   inkscape:current-layer="Layer_1"
   inkscape:window-maximized="1"
   inkscape:window-y="-8"
   inkscape:window-x="-8"
   inkscape:cy="220.17538"
   inkscape:cx="781.64794"
   inkscape:zoom="0.83007813"
   showgrid="false"
   id="namedview59"
   inkscape:window-height="1017"
   inkscape:window-width="2560"
   inkscape:pageshadow="2"
   inkscape:pageopacity="0"
   guidetolerance="10"
   gridtolerance="10"
   objecttolerance="10"
   borderopacity="1"
   bordercolor="#666666"
   pagecolor="#ffffff" />
<g
   transform="matrix(0.88285746,0,0,0.87294118,14.929726,30.117647)"
   id="g12">
	<path
   id="path2"
   d="M 453.812,333.052 H 260.887 c -29.858,0 -54.148,-24.291 -54.148,-54.148 V 54.15 C 206.738,24.291 231.03,0 260.887,0 h 192.924 c 29.858,0 54.15,24.291 54.15,54.15 v 224.753 c 10e-4,29.858 -24.29,54.149 -54.149,54.149 z M 260.887,28.593 c -14.091,0 -25.555,11.464 -25.555,25.556 v 224.753 c 0,14.091 11.464,25.555 25.555,25.555 h 192.924 c 14.091,0 25.556,-11.464 25.556,-25.555 V 54.15 c 0,-14.092 -11.466,-25.556 -25.556,-25.556 H 260.887 Z"
   style="fill:#b3404a" />
	<path
   id="path4"
   d="m 376.364,411.222 h -38.027 c -20.404,0 -37.007,-16.601 -37.007,-37.007 v -47.752 c 0,-7.896 6.402,-14.297 14.297,-14.297 7.895,0 14.297,6.401 14.297,14.297 v 47.752 c 0,4.639 3.774,8.414 8.413,8.414 h 38.027 c 4.639,0 8.414,-3.774 8.414,-8.414 v -12.521 c 0,-7.896 6.402,-14.297 14.297,-14.297 7.895,0 14.297,6.401 14.297,14.297 v 12.521 c -0.002,20.406 -16.604,37.007 -37.008,37.007 z"
   style="fill:#b3404a" />
	<path
   id="path6"
   d="m 293.374,118.997 h -72.32 c -7.895,0 -14.297,-6.401 -14.297,-14.297 0,-7.896 6.402,-14.297 14.297,-14.297 h 72.32 c 7.895,0 14.297,6.401 14.297,14.297 0,7.896 -6.401,14.297 -14.297,14.297 z"
   style="fill:#b3404a" />
	<path
   id="path8"
   d="m 293.374,194.639 h -72.32 c -7.895,0 -14.297,-6.401 -14.297,-14.297 0,-7.896 6.402,-14.297 14.297,-14.297 h 72.32 c 7.895,0 14.297,6.401 14.297,14.297 0,7.896 -6.401,14.297 -14.297,14.297 z"
   style="fill:#b3404a" />
	<path
   id="path10"
   d="M 321.192,270.279 H 221.054 c -7.895,0 -14.297,-6.401 -14.297,-14.297 0,-7.896 6.402,-14.297 14.297,-14.297 h 100.139 c 7.895,0 14.297,6.401 14.297,14.297 -0.001,7.896 -6.402,14.297 -14.298,14.297 z"
   style="fill:#b3404a" />
</g>
<path
   id="path14"
   d="M 265.32664,234.62943 V 121.51546 h 130.18351 v 113.11397 c 0,10.55474 -8.65377,19.11043 -19.32752,19.11043 h -91.52936 c -10.67286,0 -19.32663,-8.55657 -19.32663,-19.11043 z"
   style="fill:#f4b2b0;stroke-width:0.877885" />
<g
   transform="matrix(0.88285746,0,0,0.87294118,14.929726,30.117647)"
   id="g22">
	<path
   id="path16"
   d="M 409.187,270.467 H 305.513 c -19.955,0 -36.189,-16.234 -36.189,-36.189 V 104.701 c 0,-7.896 6.402,-14.297 14.297,-14.297 H 431.08 c 7.895,0 14.297,6.401 14.297,14.297 v 129.578 c -0.002,19.953 -16.236,36.188 -36.19,36.188 z m -111.27,-151.47 v 115.281 c 0,4.189 3.408,7.596 7.596,7.596 h 103.674 c 4.189,0 7.596,-3.407 7.596,-7.596 V 118.997 Z"
   style="fill:#b3404a" />
	<path
   id="path18"
   d="m 305.619,512 h -158.3 c -37.197,0 -67.458,-30.261 -67.458,-67.46 v -11.261 c 0,-7.896 6.402,-14.297 14.297,-14.297 7.895,0 14.297,6.401 14.297,14.297 v 11.261 c 0,21.43 17.435,38.867 38.865,38.867 h 158.3 c 21.431,0 38.867,-17.435 38.867,-38.867 v -43.051 c 0,-7.896 6.402,-14.297 14.297,-14.297 7.895,0 14.297,6.401 14.297,14.297 V 444.54 C 373.077,481.737 342.816,512 305.619,512 Z"
   style="fill:#b3404a" />
	<path
   id="path20"
   d="m 94.158,380.382 c -7.895,0 -14.297,-6.401 -14.297,-14.297 V 216.904 c 0,-7.896 6.402,-14.297 14.297,-14.297 7.895,0 14.297,6.401 14.297,14.297 v 149.181 c -0.001,7.896 -6.401,14.297 -14.297,14.297 z"
   style="fill:#b3404a" />
</g>
<path
   id="path24"
   d="m 127.42695,175.48505 c -17.53443,0 -25.39981,9.71671 -28.495988,15.42487 -0.38845,0.71669 -1.44435,0.71669 -1.83104,-8.7e-4 -3.08471,-5.70816 -10.90771,-15.424 -28.44037,-15.424 -19.972888,0 -37.540869,13.48083 -37.540869,38.09777 0,9.96113 2.053527,18.49501 7.750606,28.01879 11.611341,19.40811 49.864673,44.56714 57.722983,49.52545 0.86873,0.54821 1.96878,0.54908 2.83839,0.003 7.864488,-4.93474 46.124888,-29.96982 57.828048,-49.52981 5.69884,-9.52379 7.73736,-18.05766 7.73736,-28.01879 8.8e-4,-24.61607 -17.59712,-38.0969 -37.56912,-38.0969 z"
   style="fill:#f4b2b0;stroke-width:0.877885" />
<path
   id="path26"
   d="m 98.014562,304.01778 v 0 c -2.91432,0 -5.75447,-0.81969 -8.21411,-2.37265 -7.95719,-5.01941 -48.344391,-31.20765 -61.793841,-53.69025 -6.577288,-10.99207 -9.510141,-21.59395 -9.510141,-34.37293 0,-29.30726 21.097645,-50.57821 50.163082,-50.57821 13.54921,0 22.99225,4.53318 29.36737,9.73853 6.383058,-5.20273 15.837578,-9.73853 29.400918,-9.73853 29.08309,0 50.19221,21.27095 50.19221,50.57821 0,12.79557 -2.92844,23.39744 -9.49513,34.37206 -13.54304,22.63711 -53.9629,48.71448 -61.92628,53.7112 -2.45522,1.54074 -5.2839,2.35257 -8.184078,2.35257 z m -29.3559,-116.05316 c -11.4948,0 -24.919531,6.70942 -24.919531,25.61733 0,8.27286 1.73658,14.54931 5.992836,21.66378 7.792985,13.02516 32.563315,31.44858 48.295835,41.88896 15.737818,-10.39586 40.519618,-28.77127 48.368228,-41.88896 4.24566,-7.09701 5.97783,-13.37346 5.97783,-21.66378 0,-18.90878 -13.43886,-25.61733 -24.94867,-25.61733 -8.34565,0 -14.18929,2.97498 -17.37111,8.84202 -2.38901,4.39526 -7.00017,7.11971 -12.038638,7.11971 -5.05613,0 -9.67435,-2.7358 -12.05277,-7.14328 -3.15975,-5.84871 -8.98396,-8.81845 -17.30401,-8.81845 z"
   style="fill:#b3404a;stroke-width:0.877885" />
<g
   id="g28">
</g>
<g
   id="g30">
</g>
<g
   id="g32">
</g>
<g
   id="g34">
</g>
<g
   id="g36">
</g>
<g
   id="g38">
</g>
<g
   id="g40">
</g>
<g
   id="g42">
</g>
<g
   id="g44">
</g>
<g
   id="g46">
</g>
<g
   id="g48">
</g>
<g
   id="g50">
</g>
<g
   id="g52">
</g>
<g
   id="g54">
</g>
<g
   id="g56">
</g>
</svg>
