<?xml version="1.0" encoding="iso-8859-1"?>
<!-- Generator: Adobe Illustrator 19.0.0, SVG Export Plug-In . SVG Version: 6.00 Build 0)  -->
<svg version="1.1" id="Layer_1" xmlns="http://www.w3.org/2000/svg" xmlns:xlink="http://www.w3.org/1999/xlink" x="0px" y="0px"
	 viewBox="0 0 333 333" style="enable-background:new 0 0 333 333;" xml:space="preserve">
<g>
	<path style="fill:#FF7876;" d="M305.5,58.723h-278c-11.046,0-20,8.954-20,20v79.681c0,11.046,8.954,20,20,20h214.799v-9.751
		c0-7.594,6.156-13.75,13.75-13.75c7.594,0,13.75,6.156,13.75,13.75v9.751H305.5c11.046,0,20-8.954,20-20v-79.68
		C325.5,67.678,316.546,58.723,305.5,58.723z"/>
	<g>
		<path style="fill:#FFDB77;" d="M291.904,203.002h-22.105v-34.349c0-7.594-6.156-13.75-13.75-13.75s-13.75,6.156-13.75,13.75
			v34.349v11.58h-8.948c-7.594,0-13.75,6.156-13.75,13.75s6.156,13.75,13.75,13.75h8.948v9.481h67.062v-31.105
			C309.36,210.818,301.545,203.002,291.904,203.002z"/>
		<g>
			<rect x="242.299" y="251.564" style="fill:#FF7876;" width="67.062" height="22.713"/>
			<g>
				<path style="fill:#414042;" d="M305.5,51.224h-278C12.336,51.224,0,63.56,0,78.724v79.68c0,15.164,12.336,27.5,27.5,27.5
					h207.299v21.178c-14.278,0-22.698,10.174-22.698,21.251c0,10.662,8.002,21.25,22.698,21.25c0,9.659,0,14.799,0,24.694
					c0,4.142,3.358,7.5,7.5,7.5h67.062c4.142,0,7.5-3.358,7.5-7.5c0-10.426,0-43.821,0-53.818c0-13.761-11.195-24.956-24.957-24.956
					H277.3v-9.598h28.2c15.164,0,27.5-12.336,27.5-27.5v-79.68C333,63.56,320.664,51.224,305.5,51.224z M301.86,266.776h-52.062
					v-7.713h52.062V266.776z M291.904,210.502c5.49,0,9.957,4.466,9.957,9.956v23.605h-52.062v-1.981c0-4.142-3.358-7.5-7.5-7.5
					h-8.948c-3.446,0-6.25-2.804-6.25-6.25s2.804-6.251,6.25-6.251h8.948c4.142,0,7.5-3.358,7.5-7.5c0-9.412,0-36.592,0-45.929
					c0-3.446,2.804-6.251,6.25-6.251s6.25,2.804,6.25,6.251c0,20.295,0,14.185,0,34.349c0,4.142,3.358,7.5,7.5,7.5h22.105V210.502z
					 M318,158.404c0,6.893-5.607,12.5-12.5,12.5h-28.201v-2.251c0-11.718-9.533-21.251-21.25-21.251
					c-11.717,0-21.25,9.533-21.25,21.251v2.251H27.5c-6.893,0-12.5-5.607-12.5-12.5v-79.68c0-6.893,5.607-12.5,12.5-12.5h278
					c6.893,0,12.5,5.607,12.5,12.5V158.404z"/>
				<path style="fill:#414042;" d="M63.762,97.102h-6.864c-1.803,0-3.199,1.396-3.199,3.199v34.318c0,1.745,1.396,3.199,3.199,3.199
					h6.864c11.226,0,20.3-9.132,20.3-20.417C84.062,106.234,74.988,97.102,63.762,97.102z M63.762,131.362h-3.606v-27.804h3.606
					c7.678,0,13.843,6.224,13.843,13.844C77.605,125.139,71.44,131.304,63.762,131.362z"/>
				<path style="fill:#414042;" d="M112.859,95.939c-11.189,0-20.009,9.433-20.009,20.94c0,12.056,9.377,20.94,20.009,20.94
					c10.643,0,19.777-9.467,19.777-20.94C132.636,105.891,123.983,95.939,112.859,95.939z M112.859,131.188
					c-7.279,0-13.378-6.302-13.378-14.309c0-7.598,5.614-14.309,13.378-14.309c7.359,0,13.146,6.668,13.146,14.309
					C126.005,125.002,119.656,131.188,112.859,131.188z"/>
				<path style="fill:#414042;" d="M170.276,97.684c-1.745,0-3.141,1.454-3.141,3.141v23.965l-18.788-26
					c-1.732-2.445-5.886-1.177-5.7,1.978c0,0.058,0,0.058,0,0.058v33.795c0,1.745,1.396,3.199,3.199,3.199
					c1.687,0,3.141-1.454,3.141-3.199V110.48l18.613,25.826c0.058,0.116,0.174,0.232,0.29,0.349
					c1.987,2.382,5.584,0.803,5.584-2.036v-33.795C173.475,99.138,172.021,97.684,170.276,97.684z"/>
				<path style="fill:#414042;" d="M204.193,99.196c-1.138-2.783-5.065-2.691-6.166,0l-12.855,34.26
					c-1.41,4.089,4.471,6.183,6.049,2.327l2.85-7.562h14.135l2.85,7.562c0.67,1.843,2.775,2.38,4.071,1.861
					c1.687-0.64,2.502-2.501,1.92-4.188L204.193,99.196z M196.398,121.823l4.712-12.506l4.711,12.506H196.398z"/>
				<path style="fill:#414042;" d="M244.1,97.102h-24.837c-4.311,0-4.158,6.457,0,6.457h9.19v31.061c0,4.213,6.398,4.264,6.398,0
					v-31.061h9.249c1.745,0,3.199-1.512,3.199-3.257C247.298,98.498,245.844,97.102,244.1,97.102z"/>
				<path style="fill:#414042;" d="M279.12,103.559c1.686,0,3.199-1.454,3.199-3.257c0-1.803-1.513-3.199-3.199-3.199h-18.846
					c-0.116,0-0.116,0-0.116,0H260.1c-1.803,0-3.199,1.396-3.199,3.199v34.318c0,1.745,1.396,3.199,3.199,3.199l0.058-0.058
					c0,0,0,0.058,0.116,0.058h18.846c1.686,0,3.199-1.454,3.199-3.199c0-1.803-1.513-3.257-3.199-3.257h-15.763V120.66h13.553
					c1.745,0,3.199-1.454,3.199-3.257c0-1.687-1.454-3.199-3.199-3.199h-13.553v-10.645
					C263.357,103.559,279.12,103.559,279.12,103.559z"/>
			</g>
		</g>
	</g>
</g>
<g>
</g>
<g>
</g>
<g>
</g>
<g>
</g>
<g>
</g>
<g>
</g>
<g>
</g>
<g>
</g>
<g>
</g>
<g>
</g>
<g>
</g>
<g>
</g>
<g>
</g>
<g>
</g>
<g>
</g>
</svg>
