<?xml version="1.0" encoding="iso-8859-1"?>
<!-- Generator: Adobe Illustrator 19.0.0, SVG Export Plug-In . SVG Version: 6.00 Build 0)  -->
<svg version="1.1" id="Layer_1" xmlns="http://www.w3.org/2000/svg" xmlns:xlink="http://www.w3.org/1999/xlink" x="0px" y="0px"
	 viewBox="0 0 308.487 308.487" style="enable-background:new 0 0 308.487 308.487;" xml:space="preserve">
<g>
	<g>
		<path style="fill:#FF7876;" d="M242.875,212.354c0,48.95-39.682,88.632-88.632,88.632s-88.632-39.682-88.632-88.632
			s88.632-204.86,88.632-204.86S242.875,163.404,242.875,212.354z"/>
		<path style="fill:#414042;" d="M160.763,3.787c-2.873-5.049-10.167-5.051-13.041,0c-3.658,6.436-89.612,158.212-89.612,208.566
			c0,53.008,43.125,96.133,96.133,96.133s96.133-43.125,96.133-96.133C250.375,161.999,164.421,10.224,160.763,3.787z
			 M154.242,293.487c-44.736,0-81.133-36.397-81.133-81.133c0-39.075,62.303-155.275,81.133-189.452
			c18.894,34.293,81.133,150.396,81.133,189.452C235.375,257.09,198.979,293.487,154.242,293.487z"/>
	</g>
	<g>
		<path style="fill:#FFFFFF;" d="M193.47,179.852h-16.135c-2.761,0-5-2.239-5-5v-16.135c0-2.761-2.239-5-5-5h-26.184
			c-2.761,0-5,2.239-5,5v16.135c0,2.761-2.239,5-5,5h-16.135c-2.761,0-5,2.239-5,5v26.184c0,2.761,2.239,5,5,5h16.135
			c2.761,0,5,2.239,5,5v16.135c0,2.761,2.239,5,5,5h26.184c2.761,0,5-2.239,5-5v-16.135c0-2.761,2.239-5,5-5h16.135
			c2.761,0,5-2.239,5-5v-26.184C198.47,182.09,196.231,179.852,193.47,179.852z"/>
	</g>
</g>
<g>
</g>
<g>
</g>
<g>
</g>
<g>
</g>
<g>
</g>
<g>
</g>
<g>
</g>
<g>
</g>
<g>
</g>
<g>
</g>
<g>
</g>
<g>
</g>
<g>
</g>
<g>
</g>
<g>
</g>
</svg>
