<?xml version="1.0" encoding="UTF-8" standalone="no"?>
<svg
   xmlns:dc="http://purl.org/dc/elements/1.1/"
   xmlns:cc="http://creativecommons.org/ns#"
   xmlns:rdf="http://www.w3.org/1999/02/22-rdf-syntax-ns#"
   xmlns:svg="http://www.w3.org/2000/svg"
   xmlns="http://www.w3.org/2000/svg"
   xmlns:sodipodi="http://sodipodi.sourceforge.net/DTD/sodipodi-0.dtd"
   xmlns:inkscape="http://www.inkscape.org/namespaces/inkscape"
   height="308.487"
   width="1150"
   inkscape:version="1.0 (4035a4fb49, 2020-05-01)"
   sodipodi:docname="logo.svg"
   xml:space="preserve"
   viewBox="0 0 1150 308.487"
   y="0px"
   x="0px"
   id="Layer_1"
   version="1.1"><metadata
   id="metadata49"><rdf:RDF><cc:Work
       rdf:about=""><dc:format>image/svg+xml</dc:format><dc:type
         rdf:resource="http://purl.org/dc/dcmitype/StillImage" /><dc:title></dc:title></cc:Work></rdf:RDF></metadata><defs
   id="defs47" /><sodipodi:namedview
   inkscape:current-layer="Layer_1"
   inkscape:window-maximized="1"
   inkscape:window-y="-8"
   inkscape:window-x="-8"
   inkscape:cy="154.2435"
   inkscape:cx="154.2435"
   inkscape:zoom="0.4870876"
   showgrid="false"
   id="namedview45"
   inkscape:window-height="1017"
   inkscape:window-width="2560"
   inkscape:pageshadow="2"
   inkscape:pageopacity="0"
   guidetolerance="10"
   gridtolerance="10"
   objecttolerance="10"
   borderopacity="1"
   bordercolor="#666666"
   pagecolor="#ffffff" />
<g
   id="g12">
	<g
   id="g6">
		<path
   id="path2"
   d="m 242.875,212.354 c 0,48.95 -39.682,88.632 -88.632,88.632 -48.95,0 -88.632,-39.682 -88.632,-88.632 0,-48.95 88.632,-204.86 88.632,-204.86 0,0 88.632,155.91 88.632,204.86 z"
   style="fill:#ff7876" />
		<path
   id="path4"
   d="m 160.763,3.787 c -2.873,-5.049 -10.167,-5.051 -13.041,0 -3.658,6.436 -89.612,158.212 -89.612,208.566 0,53.008 43.125,96.133 96.133,96.133 53.008,0 96.133,-43.125 96.133,-96.133 C 250.375,161.999 164.421,10.224 160.763,3.787 Z m -6.521,289.7 c -44.736,0 -81.133,-36.397 -81.133,-81.133 0,-39.075 62.303,-155.275 81.133,-189.452 18.894,34.293 81.133,150.396 81.133,189.452 0,44.736 -36.396,81.133 -81.133,81.133 z"
   style="fill:#414042" />
	</g>
	<g
   id="g10">
		<path
   id="path8"
   d="m 193.47,179.852 h -16.135 c -2.761,0 -5,-2.239 -5,-5 v -16.135 c 0,-2.761 -2.239,-5 -5,-5 h -26.184 c -2.761,0 -5,2.239 -5,5 v 16.135 c 0,2.761 -2.239,5 -5,5 h -16.135 c -2.761,0 -5,2.239 -5,5 v 26.184 c 0,2.761 2.239,5 5,5 h 16.135 c 2.761,0 5,2.239 5,5 v 16.135 c 0,2.761 2.239,5 5,5 h 26.184 c 2.761,0 5,-2.239 5,-5 v -16.135 c 0,-2.761 2.239,-5 5,-5 h 16.135 c 2.761,0 5,-2.239 5,-5 v -26.184 c 0,-2.762 -2.239,-5 -5,-5 z"
   style="fill:#ffffff" />
	</g>
</g>
<g
   id="g14">
</g>
<g
   id="g16">
</g>
<g
   id="g18">
</g>
<g
   id="g20">
</g>
<g
   id="g22">
</g>
<g
   id="g24">
</g>
<g
   id="g26">
</g>
<g
   id="g28">
</g>
<g
   id="g30">
</g>
<g
   id="g32">
</g>
<g
   id="g34">
</g>
<g
   id="g36">
</g>
<g
   id="g38">
</g>
<g
   id="g40">
</g>
<g
   id="g42">
</g>
<g
   style="font-style:normal;font-variant:normal;font-weight:900;font-stretch:normal;font-size:266.667px;line-height:1.25;font-family:Nunito;-inkscape-font-specification:'Nunito Heavy'"
   id="text53"
   aria-label="iBlood"><path
     id="path55"
     style="font-size:266.667px;fill:#f9f9f9"
     d="m 294.55158,255.64811 q -10.13334,0 -17.06668,-5.33334 -6.66668,-5.6 -6.66668,-16.53335 v -91.73345 q 0,-10.93334 6.66668,-16.26668 6.93334,-5.60001 17.06668,-5.60001 10.13335,0 16.80002,5.60001 6.93335,5.33334 6.93335,16.26668 v 91.73345 q 0,10.93335 -6.93335,16.53335 -6.66667,5.33334 -16.80002,5.33334 z m 0,-154.13352 q -12.00001,0 -19.20002,-6.133339 -6.93334,-6.400008 -6.93334,-16.800021 0,-10.400013 6.93334,-16.533353 7.20001,-6.133341 19.20002,-6.133341 11.73335,0 18.93336,6.133341 7.20001,6.13334 7.20001,16.533353 0,10.400013 -7.20001,16.800021 -6.93334,6.133339 -18.93336,6.133339 z" /><path
     id="path57"
     style="font-size:266.667px;fill:#f9f9f9"
     d="m 475.1518,156.44799 q 16.53336,5.06667 25.33337,17.06669 8.80001,11.73335 8.80001,29.0667 0,15.46669 -8.26668,27.20003 -8.00001,11.46669 -23.20003,17.86669 -14.93335,6.40001 -35.20004,6.40001 h -70.93342 q -10.93335,0 -16.80002,-5.86667 -5.86667,-5.86668 -5.86667,-16.80002 V 88.714576 q 0,-10.933347 5.86667,-16.800021 5.86667,-5.866674 16.80002,-5.866674 h 68.26675 q 29.60004,0 46.93339,13.33335 17.60002,13.066683 17.60002,35.466709 0,14.40002 -7.73334,25.60003 -7.73334,10.93335 -21.60003,16.00002 z m -78.40009,-16.53335 h 34.93337 q 13.86669,0 20.2667,-4.26667 6.4,-4.26668 6.4,-13.60002 0,-9.86668 -6.4,-14.40002 -6.40001,-4.53334 -20.2667,-4.53334 h -34.93337 z m 39.73338,77.06676 q 14.66669,0 20.80003,-4.53334 6.4,-4.80001 6.4,-15.46669 0,-10.66668 -6.4,-15.20001 -6.13334,-4.80001 -20.80003,-4.80001 h -39.73338 v 40.00005 z" /><path
     id="path59"
     style="font-size:266.667px;fill:#f9f9f9"
     d="m 554.96858,255.64811 q -10.13335,0 -17.06669,-5.33334 -6.66668,-5.6 -6.66668,-16.53335 V 86.847907 q 0,-10.933347 6.66668,-16.533354 6.93334,-5.600006 17.06669,-5.600006 10.13334,0 16.80002,5.600006 6.93334,5.600007 6.93334,16.533354 V 233.78142 q 0,10.93335 -6.93334,16.53335 -6.66668,5.33334 -16.80002,5.33334 z" /><path
     id="path61"
     style="font-size:266.667px;fill:#f9f9f9"
     d="m 672.36872,256.18145 q -21.60003,0 -38.13338,-8.26668 -16.26669,-8.53334 -25.33336,-24.00003 -8.80002,-15.46668 -8.80002,-36.26671 0,-20.80003 8.80002,-36.00004 9.06667,-15.46669 25.33336,-23.73337 16.26669,-8.26667 38.13338,-8.26667 21.86669,0 38.13338,8.26667 16.26669,8.26668 25.0667,23.73337 9.06667,15.20001 9.06667,36.00004 0,20.80003 -9.06667,36.26671 -8.80001,15.46669 -25.0667,24.00003 -16.26669,8.26668 -38.13338,8.26668 z m 0,-35.46671 q 25.33336,0 25.33336,-33.06671 0,-33.06671 -25.33336,-33.06671 -25.33336,0 -25.33336,33.06671 0,33.06671 25.33336,33.06671 z" /><path
     id="path63"
     style="font-size:266.667px;fill:#f9f9f9"
     d="m 832.26475,256.18145 q -21.60003,0 -38.13338,-8.26668 -16.26669,-8.53334 -25.33337,-24.00003 -8.80001,-15.46668 -8.80001,-36.26671 0,-20.80003 8.80001,-36.00004 9.06668,-15.46669 25.33337,-23.73337 16.26668,-8.26667 38.13338,-8.26667 21.86669,0 38.13338,8.26667 16.26668,8.26668 25.06669,23.73337 9.06668,15.20001 9.06668,36.00004 0,20.80003 -9.06668,36.26671 -8.80001,15.46669 -25.06669,24.00003 -16.26669,8.26668 -38.13338,8.26668 z m 0,-35.46671 q 25.33336,0 25.33336,-33.06671 0,-33.06671 -25.33336,-33.06671 -25.33337,0 -25.33337,33.06671 0,33.06671 25.33337,33.06671 z" /><path
     id="path65"
     style="font-size:266.667px;fill:#f9f9f9"
     d="m 1040.6941,64.714547 q 10.6667,0 17.3334,6.13334 6.9333,5.866674 6.9333,15.200019 V 233.78142 q 0,10.13335 -6.4,16.00002 -6.4,5.86667 -17.0667,5.86667 -9.8666,0 -16.2667,-5.06667 -6.1333,-5.33334 -6.9333,-14.40002 -5.6,9.33335 -16.5333,14.66669 -10.66673,5.33334 -23.73341,5.33334 -16.80002,0 -30.13337,-8.53335 -13.06668,-8.80001 -20.53336,-24.53336 -7.46667,-15.73335 -7.46667,-36.00004 0,-20.2667 7.20001,-35.46671 7.46667,-15.46669 20.53335,-23.73337 13.33335,-8.26667 30.40004,-8.26667 12.53335,0 22.93341,5.06667 10.6666,5.06667 16.5333,13.60002 V 85.247905 q 0,-9.333345 6.1333,-14.933352 6.4001,-5.600006 17.0667,-5.600006 z M 992.42741,220.71474 q 12.53339,0 19.19999,-8.53335 6.6667,-8.53334 6.6667,-24.53336 0,-15.73335 -6.6667,-24.00003 -6.6666,-8.53334 -19.19999,-8.53334 -12.26668,0 -18.93336,8.26667 -6.66667,8.26668 -6.66667,23.73337 0,16.00002 6.66667,24.80003 6.93334,8.80001 18.93336,8.80001 z" /></g></svg>
